<?xml version="1.0" standalone="no"?><svg xmlns="http://www.w3.org/2000/svg" viewBox="0 0 1440 320"><path fill="#0099ff" fill-opacity="1" d="M0,64L21.8,90.7C43.6,117,87,171,131,197.3C174.5,224,218,224,262,197.3C305.5,171,349,117,393,90.7C436.4,64,480,64,524,69.3C567.3,75,611,85,655,80C698.2,75,742,53,785,58.7C829.1,64,873,96,916,133.3C960,171,1004,213,1047,229.3C1090.9,245,1135,235,1178,197.3C1221.8,160,1265,96,1309,112C1352.7,128,1396,224,1418,272L1440,320L1440,0L1418.2,0C1396.4,0,1353,0,1309,0C1265.5,0,1222,0,1178,0C1134.5,0,1091,0,1047,0C1003.6,0,960,0,916,0C872.7,0,829,0,785,0C741.8,0,698,0,655,0C610.9,0,567,0,524,0C480,0,436,0,393,0C349.1,0,305,0,262,0C218.2,0,175,0,131,0C87.3,0,44,0,22,0L0,0Z"></path></svg>